<svg width="266" height="59" viewBox="0 0 266 59" fill="none" xmlns="http://www.w3.org/2000/svg">
<path d="M261.184 1.74835H167.166C164.24 2.03708 162.632 3.60906 162.347 6.47804V53.964C162.628 56.8295 164.234 58.3958 167.14 58.6948H261.207C264.114 58.3958 265.718 56.8284 266 53.964V6.47804C265.717 3.60906 264.107 2.03708 261.184 1.74835Z" fill="#F7971D"/>
<path d="M180.255 10.2426V23.3894C182.467 20.804 185.109 19.5112 188.182 19.5112C189.76 19.5112 191.183 19.8039 192.451 20.3893C193.719 20.9747 194.671 21.7227 195.305 22.6333C195.955 23.5439 196.394 24.5521 196.622 25.6578C196.866 26.7635 196.988 28.479 196.988 30.8043V46H190.134V32.3166C190.134 29.601 190.004 27.8774 189.744 27.1456C189.483 26.4139 189.02 25.8367 188.353 25.4139C187.703 24.9748 186.882 24.7553 185.89 24.7553C184.751 24.7553 183.735 25.0318 182.841 25.5846C181.946 26.1375 181.288 26.9749 180.865 28.0969C180.459 29.2026 180.255 30.845 180.255 33.0239V46H173.401V10.2426H180.255ZM219.514 46V42.1218C218.571 43.504 217.327 44.5934 215.783 45.3902C214.254 46.187 212.636 46.5854 210.929 46.5854C209.189 46.5854 207.628 46.2033 206.246 45.439C204.863 44.6747 203.863 43.6015 203.245 42.2194C202.628 40.8372 202.319 38.9266 202.319 36.4875V20.0966H209.173V31.9995C209.173 35.6419 209.294 37.8778 209.538 38.707C209.799 39.5201 210.262 40.1705 210.929 40.6583C211.595 41.1299 212.441 41.3657 213.465 41.3657C214.636 41.3657 215.685 41.0486 216.612 40.4144C217.539 39.764 218.173 38.9672 218.514 38.0241C218.856 37.0647 219.027 34.7313 219.027 31.0238V20.0966H225.88V46H219.514ZM231.211 46V10.2426H238.065V23.1211C240.179 20.7145 242.683 19.5112 245.578 19.5112C248.732 19.5112 251.342 20.6576 253.407 22.9504C255.472 25.2269 256.505 28.5034 256.505 32.78C256.505 37.2029 255.448 40.6096 253.334 42.9999C251.236 45.3902 248.684 46.5854 245.675 46.5854C244.196 46.5854 242.732 46.2195 241.285 45.4878C239.854 44.7398 238.618 43.6422 237.577 42.195V46H231.211ZM238.016 32.4873C238.016 35.1703 238.439 37.1541 239.285 38.4387C240.472 40.26 242.049 41.1706 244.017 41.1706C245.529 41.1706 246.814 40.5283 247.871 39.2437C248.944 37.9428 249.48 35.9021 249.48 33.1215C249.48 30.162 248.944 28.0319 247.871 26.731C246.797 25.4139 245.423 24.7553 243.748 24.7553C242.106 24.7553 240.74 25.3976 239.651 26.6822C238.561 27.9506 238.016 29.8856 238.016 32.4873Z" fill="black"/>
<path d="M1.80494 34.3654L8.82959 33.6825C9.25237 36.0403 10.1061 37.7721 11.3907 38.8778C12.6915 39.9835 14.4396 40.5364 16.6348 40.5364C18.96 40.5364 20.7081 40.0486 21.8789 39.0729C23.0659 38.081 23.6594 36.9265 23.6594 35.6094C23.6594 34.7638 23.4074 34.0483 22.9033 33.463C22.4155 32.8613 21.5536 32.341 20.3178 31.9019C19.4723 31.6092 17.5454 31.0889 14.5371 30.3409C10.6671 29.3815 7.95151 28.2026 6.39048 26.8042C4.19528 24.8366 3.09767 22.4382 3.09767 19.6088C3.09767 17.7876 3.60989 16.0883 4.63432 14.511C5.675 12.9175 7.16286 11.7061 9.09789 10.8768C11.0492 10.0475 13.3989 9.63281 16.1469 9.63281C20.6349 9.63281 24.009 10.6166 26.2693 12.5841C28.5458 14.5517 29.7409 17.1778 29.8548 20.4625L22.635 20.7796C22.326 18.9421 21.6593 17.625 20.6349 16.8282C19.6267 16.0152 18.1064 15.6086 16.0738 15.6086C13.9761 15.6086 12.3338 16.0396 11.1468 16.9014C10.3825 17.4542 10.0004 18.1941 10.0004 19.121C10.0004 19.9665 10.3581 20.6901 11.0736 21.2918C11.9842 22.056 14.1956 22.8528 17.708 23.6821C21.2203 24.5114 23.8139 25.3732 25.4887 26.2676C27.1799 27.1456 28.497 28.3571 29.4401 29.9018C30.3995 31.4304 30.8792 33.3247 30.8792 35.585C30.8792 37.6338 30.3101 39.5526 29.1718 41.3413C28.0335 43.13 26.4237 44.4634 24.3424 45.3414C22.261 46.2033 19.6674 46.6342 16.5616 46.6342C12.0411 46.6342 8.56942 45.5935 6.14657 43.5121C3.72371 41.4145 2.27651 38.3656 1.80494 34.3654ZM33.8198 32.6824C33.8198 30.4059 34.3808 28.2026 35.5028 26.0724C36.6248 23.9423 38.2102 22.3162 40.259 21.1942C42.3242 20.0722 44.6251 19.5112 47.1617 19.5112C51.0806 19.5112 54.2921 20.7877 56.7962 23.3406C59.3004 25.8773 60.5525 29.0888 60.5525 32.9751C60.5525 36.894 59.2841 40.1461 56.7474 42.7316C54.227 45.3008 51.0481 46.5854 47.2105 46.5854C44.8364 46.5854 42.5681 46.0488 40.4054 44.9756C38.259 43.9024 36.6248 42.3332 35.5028 40.2681C34.3808 38.1867 33.8198 35.6582 33.8198 32.6824ZM40.8444 33.0483C40.8444 35.6175 41.4542 37.5851 42.6738 38.951C43.8933 40.3169 45.3974 40.9998 47.1861 40.9998C48.9748 40.9998 50.4708 40.3169 51.6741 38.951C52.8936 37.5851 53.5034 35.6012 53.5034 32.9995C53.5034 30.4628 52.8936 28.5116 51.6741 27.1456C50.4708 25.7797 48.9748 25.0968 47.1861 25.0968C45.3974 25.0968 43.8933 25.7797 42.6738 27.1456C41.4542 28.5116 40.8444 30.4791 40.8444 33.0483ZM64.4443 46V10.2426H71.2982V46H64.4443ZM81.9708 27.9993L75.7511 26.8773C76.4503 24.3732 77.6536 22.5195 79.361 21.3162C81.0683 20.1129 83.605 19.5112 86.971 19.5112C90.028 19.5112 92.3045 19.8771 93.8005 20.6088C95.2965 21.3243 96.3453 22.243 96.947 23.365C97.5649 24.4708 97.8738 26.5115 97.8738 29.4872L97.8007 37.4875C97.8007 39.764 97.9064 41.447 98.1177 42.5365C98.3454 43.6097 98.76 44.7642 99.3617 46H92.581C92.4021 45.5447 92.1826 44.8699 91.9224 43.9755C91.8086 43.569 91.7273 43.3007 91.6785 43.1706C90.5077 44.3089 89.2556 45.1626 87.9223 45.7317C86.5889 46.3008 85.1661 46.5854 83.6538 46.5854C80.987 46.5854 78.8813 45.8618 77.3365 44.4146C75.808 42.9674 75.0437 41.138 75.0437 38.9266C75.0437 37.4631 75.3933 36.1622 76.0925 35.024C76.7918 33.8695 77.7674 32.9914 79.0195 32.3897C80.2878 31.7718 82.109 31.2352 84.4831 30.7799C87.6865 30.1783 89.9061 29.6173 91.1419 29.0969V28.414C91.1419 27.0969 90.8167 26.1619 90.1662 25.609C89.5158 25.0399 88.2881 24.7553 86.4832 24.7553C85.2636 24.7553 84.3124 24.9992 83.6294 25.4871C82.9465 25.9586 82.3936 26.796 81.9708 27.9993ZM91.1419 33.5605C90.2638 33.8532 88.8735 34.2028 86.971 34.6093C85.0685 35.0159 83.8245 35.4142 83.2392 35.8045C82.3448 36.4387 81.8976 37.2436 81.8976 38.2192C81.8976 39.1786 82.2554 40.0079 82.9708 40.7071C83.6863 41.4063 84.5969 41.7559 85.7027 41.7559C86.9385 41.7559 88.1174 41.3494 89.2394 40.5364C90.0687 39.9185 90.6134 39.1624 90.8736 38.268C91.0524 37.6826 91.1419 36.5688 91.1419 34.9264V33.5605ZM126.718 46H119.864V32.78C119.864 29.9832 119.718 28.1782 119.425 27.3652C119.132 26.5359 118.652 25.8936 117.986 25.4383C117.335 24.983 116.547 24.7553 115.62 24.7553C114.433 24.7553 113.368 25.0805 112.425 25.731C111.481 26.3814 110.831 27.2432 110.473 28.3164C110.132 29.3896 109.961 31.3734 109.961 34.2679V46H103.107V20.0966H109.473V23.9016C111.734 20.9747 114.579 19.5112 118.01 19.5112C119.522 19.5112 120.905 19.7877 122.157 20.3405C123.409 20.8771 124.352 21.5682 124.986 22.4138C125.636 23.2593 126.084 24.2187 126.328 25.2919C126.588 26.3651 126.718 27.9018 126.718 29.9018V46ZM137.317 27.9993L131.098 26.8773C131.797 24.3732 133 22.5195 134.707 21.3162C136.415 20.1129 138.951 19.5112 142.317 19.5112C145.374 19.5112 147.651 19.8771 149.147 20.6088C150.643 21.3243 151.692 22.243 152.293 23.365C152.911 24.4708 153.22 26.5115 153.22 29.4872L153.147 37.4875C153.147 39.764 153.253 41.447 153.464 42.5365C153.692 43.6097 154.106 44.7642 154.708 46H147.927C147.749 45.5447 147.529 44.8699 147.269 43.9755C147.155 43.569 147.074 43.3007 147.025 43.1706C145.854 44.3089 144.602 45.1626 143.269 45.7317C141.935 46.3008 140.512 46.5854 139 46.5854C136.333 46.5854 134.228 45.8618 132.683 44.4146C131.154 42.9674 130.39 41.138 130.39 38.9266C130.39 37.4631 130.74 36.1622 131.439 35.024C132.138 33.8695 133.114 32.9914 134.366 32.3897C135.634 31.7718 137.455 31.2352 139.83 30.7799C143.033 30.1783 145.252 29.6173 146.488 29.0969V28.414C146.488 27.0969 146.163 26.1619 145.513 25.609C144.862 25.0399 143.635 24.7553 141.83 24.7553C140.61 24.7553 139.659 24.9992 138.976 25.4871C138.293 25.9586 137.74 26.796 137.317 27.9993ZM146.488 33.5605C145.61 33.8532 144.22 34.2028 142.317 34.6093C140.415 35.0159 139.171 35.4142 138.586 35.8045C137.691 36.4387 137.244 37.2436 137.244 38.2192C137.244 39.1786 137.602 40.0079 138.317 40.7071C139.033 41.4063 139.943 41.7559 141.049 41.7559C142.285 41.7559 143.464 41.3494 144.586 40.5364C145.415 39.9185 145.96 39.1624 146.22 38.268C146.399 37.6826 146.488 36.5688 146.488 34.9264V33.5605Z" fill="white"/>
</svg>
